<?xml version="1.0" encoding="UTF-8" standalone="no"?>
<!-- Created with Inkscape (http://www.inkscape.org/) -->

<svg
   xmlns:dc="http://purl.org/dc/elements/1.1/"
   xmlns:cc="http://creativecommons.org/ns#"
   xmlns:rdf="http://www.w3.org/1999/02/22-rdf-syntax-ns#"
   xmlns:svg="http://www.w3.org/2000/svg"
   xmlns="http://www.w3.org/2000/svg"
   xmlns:sodipodi="http://sodipodi.sourceforge.net/DTD/sodipodi-0.dtd"
   xmlns:inkscape="http://www.inkscape.org/namespaces/inkscape"
   version="1.1"
   width="744.09448"
   height="1052.3622"
   id="svg3186"
   inkscape:version="0.48.3.1 r9886"
   sodipodi:docname="agat-aquarius.svg">
  <sodipodi:namedview
     pagecolor="#ffffff"
     bordercolor="#666666"
     borderopacity="1"
     objecttolerance="10"
     gridtolerance="10"
     guidetolerance="10"
     inkscape:pageopacity="0"
     inkscape:pageshadow="2"
     inkscape:window-width="1364"
     inkscape:window-height="552"
     id="namedview27"
     showgrid="false"
     showguides="true"
     inkscape:guide-bbox="true"
     inkscape:zoom="1.7940591"
     inkscape:cx="337.18466"
     inkscape:cy="491.05481"
     inkscape:window-x="0"
     inkscape:window-y="30"
     inkscape:window-maximized="0"
     inkscape:current-layer="layer1">
    <sodipodi:guide
       orientation="0,1"
       position="376.24178,473.22855"
       id="guide3004" />
  </sodipodi:namedview>
  <defs
     id="defs3188" />
  <metadata
     id="metadata3191">
    <rdf:RDF>
      <cc:Work
         rdf:about="">
        <dc:format>image/svg+xml</dc:format>
        <dc:type
           rdf:resource="http://purl.org/dc/dcmitype/StillImage" />
        <dc:title></dc:title>
      </cc:Work>
    </rdf:RDF>
  </metadata>
  <g
     id="layer1">
    <path
       d="m 340.21248,572.37912 189.29375,0 0,-7.26625 -189.29375,0 0,7.26625 z"
       id="path2997"
       style="fill:#3d92d6;fill-opacity:1;fill-rule:evenodd;stroke:none"
       inkscape:export-filename="/home/biiont/aa/misc/logo-with-line.png"
       inkscape:export-xdpi="92.641899"
       inkscape:export-ydpi="92.641899" />
    <path
       d="m 340.21248,579.64537 189.29375,0 0,-7.26625 -189.29375,0 0,7.26625 z"
       id="path2999"
       style="fill:#26388c;fill-opacity:1;fill-rule:evenodd;stroke:none"
       inkscape:export-filename="/home/biiont/aa/misc/logo-with-line.png"
       inkscape:export-xdpi="92.641899"
       inkscape:export-ydpi="92.641899" />
    <path
       d="m 529.50498,565.11162 -189.29375,0 0,-7.26625 189.29375,0 0,7.26625 z"
       id="path3001"
       style="fill:#7bcce7;fill-opacity:1;fill-rule:evenodd;stroke:none"
       inkscape:export-filename="/home/biiont/aa/misc/logo-with-line.png"
       inkscape:export-xdpi="92.641899"
       inkscape:export-ydpi="92.641899" />
    <g
       transform="matrix(1.25,0,0,-1.25,296.33948,564.98662)"
       id="g3011"
       inkscape:export-filename="/home/biiont/aa/misc/logo-with-line.png"
       inkscape:export-xdpi="92.641899"
       inkscape:export-ydpi="92.641899">
      <path
         d="M 0,0 -1.404,3.608 -2.808,0 0,0 z m 14.734,-4.752 0,4.866 -2.02,0 0,0.776 5.218,0 0,-0.776 -2.02,0 0,-4.866 -1.178,0 z m -3.137,2.561 -0.755,1.944 -0.759,-1.944 1.514,0 z m -2.509,-2.561 -0.963,0 2.193,5.642 1.287,0 2.193,-5.642 -1.206,0 -0.722,1.855 -2.059,0 -0.723,-1.855 z m -1.614,0 0,2.561 -2.032,0 0,-0.706 0.855,0 0,-1.147 c -0.179,-0.039 -0.337,-0.06 -0.472,-0.06 -0.623,0 -1.103,0.198 -1.446,0.587 -0.346,0.392 -0.514,0.92 -0.514,1.582 0,0.607 0.143,1.124 0.435,1.55 0.29,0.427 0.766,0.64 1.427,0.64 0.588,0 1.116,-0.199 1.742,-0.635 l 0,0.92 C 6.899,0.877 6.247,1.03 5.632,1.03 4.898,1.03 4.317,0.9 3.892,0.645 3.465,0.39 3.145,0.038 2.934,-0.41 2.724,-0.856 2.615,-1.363 2.615,-1.922 c 0,-0.859 0.243,-1.57 0.721,-2.129 0.482,-0.562 1.25,-0.841 2.306,-0.841 0.636,0 1.216,0.039 1.832,0.14 m 11.471,2.561 -1.913,0 0,-0.707 1.913,0 0,0.707 z m -27.176,-4.784 -2.809,0 1.405,3.608 1.404,-3.608 z m 9.075,0.888 1.172,0 0,-3.456 c 0,-0.624 0.107,-1.037 0.318,-1.24 0.211,-0.205 0.487,-0.304 0.826,-0.304 0.334,0 0.597,0.097 0.796,0.3 0.194,0.199 0.292,0.586 0.292,1.162 l 0,3.538 1.021,0 0,-3.464 c 0,-0.652 -0.081,-1.118 -0.242,-1.401 -0.165,-0.286 -0.401,-0.507 -0.714,-0.67 -0.308,-0.163 -0.702,-0.245 -1.174,-0.245 -0.472,0 -0.872,0.078 -1.205,0.225 -0.337,0.153 -0.601,0.378 -0.795,0.676 -0.199,0.299 -0.295,0.774 -0.295,1.427 l 0,3.452 z m 8.042,-3.081 -0.758,1.945 -0.756,-1.945 1.514,0 z m -2.508,-2.559 -0.966,0 2.195,5.64 1.285,0 2.191,-5.64 -1.205,0 -0.72,1.855 -2.059,0 -0.721,-1.855 z m 6.325,2.559 0.265,0 c 1.109,0 1.302,0.409 1.302,1.13 0,0.899 -0.286,1.179 -1.164,1.179 l -0.403,0 0,-2.309 z m -1.109,-2.559 0,5.64 2.112,0 c 1.178,0 1.705,-0.555 1.705,-1.805 0,-0.76 -0.232,-1.477 -1.079,-1.666 l 1.843,-2.169 -1.427,0 -1.403,1.855 -0.642,0 0,-1.855 -1.109,0 z m 5.135,5.64 1.172,0 0,-5.64 -1.172,0 0,5.64 z m 2.17,0 1.176,0 0,-3.456 c 0,-0.624 0.104,-1.037 0.317,-1.24 0.213,-0.205 0.485,-0.304 0.826,-0.304 0.33,0 0.599,0.097 0.793,0.3 0.198,0.199 0.297,0.586 0.297,1.162 l 0,3.538 1.021,0 0,-3.464 c 0,-0.652 -0.084,-1.118 -0.248,-1.401 -0.164,-0.286 -0.398,-0.507 -0.708,-0.67 -0.313,-0.163 -0.705,-0.245 -1.175,-0.245 -0.47,0 -0.871,0.078 -1.209,0.225 -0.333,0.153 -0.599,0.378 -0.794,0.676 -0.195,0.299 -0.296,0.774 -0.296,1.427 l 0,3.452 z m 5.091,-5.586 0,0.965 c 0.524,-0.216 1.02,-0.379 1.585,-0.379 0.332,0 0.576,0.071 0.738,0.219 0.164,0.149 0.245,0.323 0.245,0.529 0,0.157 -0.044,0.3 -0.137,0.427 -0.088,0.126 -0.312,0.289 -0.666,0.484 l -0.379,0.209 c -0.546,0.298 -0.911,0.581 -1.103,0.836 -0.194,0.257 -0.292,0.553 -0.292,0.893 0,0.427 0.163,0.787 0.486,1.088 0.327,0.304 0.791,0.456 1.4,0.456 0.452,0 0.962,-0.066 1.535,-0.195 l 0,-0.901 c -0.584,0.213 -1.046,0.323 -1.391,0.323 -0.281,0 -0.497,-0.064 -0.646,-0.185 -0.146,-0.125 -0.221,-0.273 -0.221,-0.444 0,-0.133 0.045,-0.254 0.133,-0.371 0.088,-0.112 0.309,-0.272 0.663,-0.466 l 0.406,-0.226 c 0.625,-0.346 1.022,-0.651 1.192,-0.905 0.171,-0.26 0.254,-0.553 0.254,-0.874 0,-0.461 -0.176,-0.856 -0.527,-1.184 -0.353,-0.33 -0.913,-0.493 -1.682,-0.493 -0.455,0 -0.987,0.063 -1.593,0.194 m -36.876,-0.054 1.336,3.442 3.827,0 1.333,-3.442 1.785,0 c -0.416,0.272 -0.737,0.643 -0.964,1.093 -0.265,0.541 -0.38,1.128 -0.38,1.729 0,0.442 0.063,0.873 0.203,1.287 l -2.472,6.355 -2.387,0 -4.068,-10.464 1.787,0 z m 10.187,0.636 c 0.242,0 0.457,0.043 0.644,0.13 0.217,-0.233 0.456,-0.443 0.714,-0.627 -0.399,-0.184 -0.851,-0.279 -1.358,-0.279 -0.58,0 -1.088,0.123 -1.528,0.365 -0.437,0.243 -0.767,0.592 -0.994,1.049 -0.223,0.458 -0.337,0.974 -0.337,1.548 0,0.572 0.114,1.089 0.337,1.544 0.227,0.459 0.557,0.808 0.994,1.048 0.44,0.245 0.948,0.367 1.528,0.367 0.58,0 1.089,-0.122 1.528,-0.367 0.438,-0.24 0.768,-0.589 0.995,-1.048 0.223,-0.455 0.336,-0.972 0.336,-1.544 0,-0.574 -0.113,-1.09 -0.336,-1.548 -0.04,-0.08 -0.083,-0.156 -0.129,-0.229 -0.396,0.135 -0.727,0.306 -1.031,0.528 0.176,0.393 0.254,0.82 0.254,1.252 0,0.572 -0.135,1.079 -0.4,1.52 -0.269,0.441 -0.672,0.663 -1.217,0.663 -0.545,0 -0.947,-0.222 -1.217,-0.663 -0.264,-0.441 -0.399,-0.948 -0.399,-1.52 0,-0.536 0.119,-1.065 0.399,-1.531 0.27,-0.442 0.672,-0.658 1.217,-0.658 m -1.954,6.339 -1.791,0 4.07,10.464 2.385,0 2.411,-6.194 C 2.286,-0.897 2.227,-1.328 2.227,-1.766 c 0,-0.882 0.236,-1.71 0.814,-2.382 0.222,-0.261 0.484,-0.455 0.776,-0.604 l -1.972,0 -1.337,3.442 -3.824,0 -1.337,-3.442 z"
         id="path3013"
         style="fill:#26388c;fill-opacity:1;fill-rule:nonzero;stroke:none" />
    </g>
    <g
       transform="matrix(1.25,0,0,-1.25,296.78623,578.75062)"
       id="g3015"
       inkscape:export-filename="/home/biiont/aa/misc/logo-with-line.png"
       inkscape:export-xdpi="92.641899"
       inkscape:export-ydpi="92.641899">
      <path
         d="M 0,0 C -1.322,0.278 -2.034,0.761 -2.975,1.955 L -3.216,1.551 c 0.459,-1.081 1.474,-2.274 2.962,-2.637 L 0,0 z"
         id="path3017"
         style="fill:#3d92d6;fill-opacity:1;fill-rule:nonzero;stroke:none" />
    </g>
    <g
       transform="matrix(1.25,0,0,-1.25,233.75585,566.48075)"
       id="g3019"
       inkscape:export-filename="/home/biiont/aa/misc/logo-with-line.png"
       inkscape:export-xdpi="92.641899"
       inkscape:export-ydpi="92.641899">
      <path
         d="M 0,0 C -0.703,-1.244 -1.405,-2.516 -2.116,-3.825 7.068,2.444 14.722,6.373 22.975,9.664 22.773,10.036 22.57,10.406 22.367,10.773 19.891,15.25 17.351,19.318 15.195,22.313 8.763,14.414 4.374,7.744 0,0"
         id="path3021"
         style="fill:#26388c;fill-opacity:1;fill-rule:evenodd;stroke:none" />
    </g>
    <g
       transform="matrix(1.25,0,0,-1.25,262.47473,554.40137)"
       id="g3023"
       inkscape:export-filename="/home/biiont/aa/misc/logo-with-line.png"
       inkscape:export-xdpi="92.641899"
       inkscape:export-ydpi="92.641899">
      <path
         d="m 0,0 c -8.253,-3.291 -15.907,-7.219 -25.091,-13.489 -0.773,-1.425 -1.556,-2.894 -2.359,-4.419 10.575,8.125 18.949,12.884 28.051,16.79 C 0.401,-0.743 0.201,-0.37 0,0"
         id="path3025"
         style="fill:#3d92d6;fill-opacity:1;fill-rule:evenodd;stroke:none" />
    </g>
    <g
       transform="matrix(1.25,0,0,-1.25,263.22536,555.79899)"
       id="g3027"
       inkscape:export-filename="/home/biiont/aa/misc/logo-with-line.png"
       inkscape:export-xdpi="92.641899"
       inkscape:export-ydpi="92.641899">
      <path
         d="m 0,0 c -9.102,-3.906 -17.476,-8.665 -28.05,-16.79 -0.874,-1.659 -1.771,-3.385 -2.706,-5.193 12.228,10.519 21.351,16.252 31.35,20.856 C 0.397,-0.75 0.199,-0.374 0,0"
         id="path3029"
         style="fill:#7bcce7;fill-opacity:1;fill-rule:evenodd;stroke:none" />
    </g>
    <g
       transform="matrix(1.25,0,0,-1.25,263.96823,557.20837)"
       id="g3031"
       inkscape:export-filename="/home/biiont/aa/misc/logo-with-line.png"
       inkscape:export-xdpi="92.641899"
       inkscape:export-ydpi="92.641899">
      <path
         d="m 0,0 c -10,-4.604 -19.123,-10.336 -31.351,-20.855 1.386,0 2.756,0.005 4.112,0.018 10.742,9.646 18.973,15.087 27.935,19.484 C 0.466,-0.9 0.234,-0.449 0,0"
         id="path3033"
         style="fill:#ffffff;fill-opacity:1;fill-rule:evenodd;stroke:none" />
    </g>
    <g
       transform="matrix(1.25,0,0,-1.25,264.83861,558.89899)"
       id="g3035"
       inkscape:export-filename="/home/biiont/aa/misc/logo-with-line.png"
       inkscape:export-xdpi="92.641899"
       inkscape:export-ydpi="92.641899">
      <path
         d="m 0,0 c -8.962,-4.398 -17.193,-9.838 -27.936,-19.485 1.347,0.012 2.68,0.031 4.001,0.058 9.33,8.758 16.679,13.885 24.623,18.059 C 0.461,-0.911 0.231,-0.455 0,0"
         id="path3037"
         style="fill:#7bcce7;fill-opacity:1;fill-rule:evenodd;stroke:none" />
    </g>
    <g
       transform="matrix(1.25,0,0,-1.25,265.69798,560.60862)"
       id="g3039"
       inkscape:export-filename="/home/biiont/aa/misc/logo-with-line.png"
       inkscape:export-xdpi="92.641899"
       inkscape:export-ydpi="92.641899">
      <path
         d="m 0,0 c -7.944,-4.174 -15.293,-9.302 -24.623,-18.06 1.308,0.026 2.602,0.06 3.887,0.102 7.989,7.854 14.467,12.642 21.414,16.572 C 0.455,-0.923 0.229,-0.461 0,0"
         id="path3041"
         style="fill:#3d92d6;fill-opacity:1;fill-rule:evenodd;stroke:none" />
    </g>
    <g
       transform="matrix(1.25,0,0,-1.25,266.54573,562.34137)"
       id="g3043"
       inkscape:export-filename="/home/biiont/aa/misc/logo-with-line.png"
       inkscape:export-xdpi="92.641899"
       inkscape:export-ydpi="92.641899">
      <path
         d="m 0,0 c -6.947,-3.93 -13.425,-8.718 -21.415,-16.572 1.267,0.042 2.522,0.091 3.768,0.15 8.018,0.377 15.644,1.128 23.204,2.498 -1.1,3.813 -2.846,8.158 -4.887,12.515 C 0.45,-0.939 0.227,-0.469 0,0"
         id="path3045"
         style="fill:#26388c;fill-opacity:1;fill-rule:evenodd;stroke:none" />
    </g>
    <path
       inkscape:connector-curvature="0"
       d="m 26.30851,571.86738 189.29375,0 0,-7.26625 -189.29375,0 0,7.26625 z"
       id="path2997-0"
       style="fill:#3d92d6;fill-opacity:1;fill-rule:evenodd;stroke:none"
       inkscape:export-filename="/home/biiont/aa/misc/logo-with-line.png"
       inkscape:export-xdpi="92.641899"
       inkscape:export-ydpi="92.641899" />
    <path
       inkscape:connector-curvature="0"
       d="m 26.30851,579.13363 189.29375,0 0,-7.26625 -189.29375,0 0,7.26625 z"
       id="path2999-5"
       style="fill:#26388c;fill-opacity:1;fill-rule:evenodd;stroke:none"
       inkscape:export-filename="/home/biiont/aa/misc/logo-with-line.png"
       inkscape:export-xdpi="92.641899"
       inkscape:export-ydpi="92.641899" />
    <path
       inkscape:connector-curvature="0"
       d="m 215.60101,564.59988 -189.29375,0 0,-7.26625 189.29375,0 0,7.26625 z"
       id="path3001-0"
       style="fill:#7bcce7;fill-opacity:1;fill-rule:evenodd;stroke:none"
       inkscape:export-filename="/home/biiont/aa/misc/logo-with-line.png"
       inkscape:export-xdpi="92.641899"
       inkscape:export-ydpi="92.641899" />
  </g>
</svg>
